<svg width="200" height="40" viewBox="0 0 200 40" fill="none" xmlns="http://www.w3.org/2000/svg">
<path d="M29.9254 17.2104C28.7971 18.3456 28.2332 19.9246 28.3872 21.5178L28.3607 21.4913C28.519 23.3661 27.8427 25.2154 26.5123 26.5458C25.1818 27.8762 23.3326 28.5525 21.4577 28.3942L21.4842 28.4207C19.2142 28.2094 17.0555 29.4442 16.0867 31.5079C15.118 33.5717 15.5473 36.0213 17.1601 37.6326C18.7729 39.2439 21.2228 39.671 23.2857 38.7004C25.3486 37.7298 26.5814 35.5699 26.368 33.3001L26.396 33.3266C26.2377 31.4518 26.914 29.6025 28.2444 28.2721C29.5748 26.9417 31.4241 26.2654 33.2989 26.4236L33.271 26.3972C35.7658 26.6215 38.0872 25.1003 38.8774 22.7234C39.6676 20.3464 38.719 17.7382 36.5864 16.4242C34.4538 15.1102 31.6976 15.4358 29.9298 17.2104H29.9254Z" fill="#5454D4"/>
<path d="M19.0769 24.9531L19.0489 24.9266C20.6431 25.0872 22.2252 24.5235 23.3586 23.3909C24.492 22.2584 25.0569 20.6768 24.8974 19.0825L24.9254 19.1089C24.7671 17.2341 25.4434 15.3848 26.7738 14.0544C28.1042 12.724 29.9535 12.0477 31.8283 12.206L31.8004 12.1795C34.0706 12.3927 36.2306 11.1593 37.2009 9.09586C38.1711 7.0324 37.743 4.5821 36.1307 2.96978C34.5184 1.35745 32.0681 0.929418 30.0046 1.89964C27.9412 2.86986 26.7078 5.02992 26.921 7.30011L26.8945 7.27217C27.0533 9.14713 26.3772 10.9967 25.0466 12.3273C23.7161 13.6578 21.8665 14.3339 19.9916 14.1751L20.018 14.2031C18.4238 14.0424 16.8418 14.6061 15.7084 15.7387C14.575 16.8712 14.0101 18.4529 14.1695 20.0472L14.143 20.0207C14.3008 21.8954 13.6243 23.7443 12.294 25.0746C10.9637 26.4049 9.11479 27.0814 7.24009 26.9236L7.26656 26.9501C4.99638 26.7369 2.83631 27.9703 1.86609 30.0338C0.895871 32.0972 1.3239 34.5475 2.93623 36.1599C4.54856 37.7722 6.99885 38.2002 9.06231 37.23C11.1258 36.2598 12.3592 34.0997 12.146 31.8295L12.1739 31.856C12.0157 29.9812 12.6919 28.1319 14.0223 26.8015C15.3528 25.4711 17.202 24.7948 19.0769 24.9531Z" fill="#FF7143"/>
<path d="M9.22099 22.0016C10.3495 20.8665 10.9129 19.2873 10.7578 17.6942L10.7857 17.7207C10.6273 15.8453 11.304 13.9955 12.6351 12.665C13.9662 11.3344 15.8163 10.6586 17.6916 10.8178L17.6636 10.7913C19.933 11.0039 22.0921 9.7706 23.0617 7.7078C24.0313 5.64499 23.6033 3.19566 21.9916 1.58393C20.3798 -0.0277992 17.9305 -0.455804 15.8677 0.513824C13.8049 1.48345 12.5716 3.64248 12.7842 5.91187L12.7578 5.8854C12.916 7.76024 12.2397 9.60949 10.9093 10.9399C9.5789 12.2703 7.72964 12.9466 5.85481 12.7883L5.88128 12.8148C3.38658 12.5911 1.06564 14.1127 0.275915 16.4896C-0.513813 18.8666 0.435108 21.4746 2.56768 22.7882C4.70026 24.1019 7.45632 23.7762 9.22393 22.0016H9.22099Z" fill="#5454D4"/>
<path d="M54.8779 7.31618H59.2456V28.5706H54.8779V7.31618Z" fill="#19191B"/>
<path fill-rule="evenodd" clip-rule="evenodd" d="M66.461 14.1418C63.5786 15.3459 61.7066 18.169 61.7191 21.2926C61.704 23.3409 62.5131 25.3092 63.9643 26.7546C65.4156 28.2001 67.3871 29.0013 69.4353 28.9779C72.559 28.9779 75.3745 27.0946 76.567 24.2074C77.7595 21.3203 77.0937 17.999 74.8804 15.7947C72.6672 13.5903 69.3433 12.9378 66.461 14.1418ZM69.3733 18.0359C71.2111 18.0019 72.733 19.4552 72.7838 21.2926C72.8334 22.2035 72.4998 23.0937 71.8638 23.7476C71.2277 24.4015 70.3472 24.7596 69.4353 24.7353C67.5972 24.7354 66.1023 23.2544 66.0852 21.4163C66.0682 19.5783 67.5355 18.0698 69.3733 18.0359Z" fill="#19191B"/>
<path fill-rule="evenodd" clip-rule="evenodd" d="M94.5588 27.8368V14.0132L90.3074 14.0103V15.4956C89.2702 14.2266 87.6929 13.5244 86.0559 13.6029C82.0626 13.7289 78.8906 17.0025 78.8906 20.9978C78.8906 24.9931 82.0626 28.2667 86.0559 28.3926C87.6929 28.4712 89.2702 27.769 90.3074 26.5V27.8309C90.3804 28.709 90.0506 29.5727 89.4107 30.1785C88.7709 30.7843 87.8904 31.0665 87.0176 30.9456C85.6371 31.0865 84.3141 30.3555 83.6985 29.1118L79.9721 31.2662C81.43 33.6416 84.0927 35.0036 86.8721 34.7956C90.7441 34.7956 94.5588 32.7279 94.5588 27.8368ZM88.2334 17.6356C89.5473 18.2281 90.3689 19.5599 90.3088 21C90.336 21.9298 89.9688 22.8278 89.2978 23.4722C88.6269 24.1165 87.7147 24.4471 86.7868 24.3824C85.3455 24.3841 84.0479 23.5093 83.509 22.1725C82.9702 20.8358 83.2982 19.3056 84.3378 18.3073C85.3774 17.309 86.9195 17.043 88.2334 17.6356Z" fill="#19191B"/>
<path fill-rule="evenodd" clip-rule="evenodd" d="M101.774 14.1418C98.8919 15.3459 97.0198 18.169 97.0323 21.2926C97.0172 23.3409 97.8263 25.3092 99.2776 26.7546C100.729 28.2001 102.7 29.0013 104.749 28.9779C107.872 28.9779 110.688 27.0946 111.88 24.2074C113.073 21.3203 112.407 17.999 110.194 15.7947C107.98 13.5903 104.657 12.9378 101.774 14.1418ZM104.686 18.0359C106.524 18.0019 108.046 19.4552 108.097 21.2926C108.147 22.2035 107.813 23.0937 107.177 23.7476C106.541 24.4015 105.66 24.7596 104.749 24.7353C102.91 24.7354 101.415 23.2544 101.398 21.4163C101.381 19.5783 102.849 18.0698 104.686 18.0359Z" fill="#19191B"/>
<path fill-rule="evenodd" clip-rule="evenodd" d="M116.119 7.69066C115.14 8.09628 114.501 9.05184 114.501 10.1118C114.516 11.5531 115.681 12.718 117.122 12.7324C118.182 12.7324 119.138 12.0939 119.543 11.1146C119.949 10.1354 119.725 9.00822 118.975 8.25873C118.226 7.50925 117.098 7.28504 116.119 7.69066ZM119.312 14.0132H114.943L114.937 28.5721H119.312V14.0132Z" fill="#19191B"/>
<path fill-rule="evenodd" clip-rule="evenodd" d="M136.289 26.5823C137.595 25.1398 138.273 23.236 138.171 21.2926C138.273 19.349 137.597 17.4446 136.29 16.0016C134.984 14.5587 133.156 13.6964 131.212 13.6059C129.573 13.5165 127.981 14.1682 126.875 15.3809V14.0132H122.507V34.3941H126.875V27.2015C127.98 28.4151 129.573 29.0674 131.212 28.9779C133.156 28.887 134.983 28.0248 136.289 26.5823ZM130.281 17.9152C132.183 17.8834 133.755 19.391 133.803 21.2926C133.869 22.2377 133.528 23.166 132.867 23.8442C132.206 24.5225 131.286 24.8862 130.34 24.8441C128.437 24.8443 126.891 23.3108 126.875 21.4086C126.859 19.5064 128.379 17.947 130.281 17.9152Z" fill="#19191B"/>
<path d="M151.649 24.2029C151.649 27.5515 148.738 28.9779 145.594 28.9779C142.995 29.2134 140.515 27.8407 139.334 25.5132L143.118 23.3588C143.433 24.4424 144.463 25.1582 145.588 25.0765C146.635 25.0765 147.16 24.7559 147.16 24.175C147.16 22.5721 139.997 23.4176 139.997 18.3809C139.997 15.2059 142.676 13.6059 145.704 13.6059C148.023 13.5325 150.197 14.7258 151.381 16.7206L147.654 18.7294C147.32 17.9498 146.553 17.4455 145.704 17.4485C144.947 17.4485 144.481 17.7426 144.481 18.2632C144.487 19.9235 151.649 18.8162 151.649 24.2029Z" fill="#19191B"/>
<path d="M167.603 14.0132V28.5721H163.235V27.2029C162.213 28.4284 160.665 29.0892 159.074 28.9794C156.132 28.9794 153.632 26.8838 153.632 22.95V14.0132H158V22.3103C157.926 23.0121 158.165 23.7109 158.653 24.2208C159.14 24.7308 159.828 25.0002 160.532 24.9574C162.134 24.9574 163.24 24.0265 163.24 21.9588V14.0176L167.603 14.0132Z" fill="#19191B"/>
<path d="M192.647 19.6323V28.5706H188.279V20.0103C188.279 18.5544 187.581 17.6235 186.184 17.6235C184.728 17.6235 183.912 18.6426 183.912 20.3603V28.5706H179.546V20.0103C179.546 18.5544 178.847 17.6235 177.449 17.6235C175.993 17.6235 175.178 18.6426 175.178 20.3603V28.5706H170.81V14.0118H175.178V15.35C176.098 14.1437 177.567 13.4864 179.079 13.6044C180.6 13.53 182.047 14.2592 182.893 15.525C183.876 14.2017 185.471 13.4764 187.115 13.6044C190.457 13.6059 192.647 15.9926 192.647 19.6323Z" fill="#19191B"/>
<path d="M196.341 13.9235C198.131 13.9235 199.582 12.4724 199.582 10.6824C199.582 8.8923 198.131 7.44118 196.341 7.44118C194.551 7.44118 193.1 8.8923 193.1 10.6824C193.1 12.4724 194.551 13.9235 196.341 13.9235Z" fill="#19191B"/>
</svg>
